# xmcd CD database file
#
# Track frame offsets:
#	150
#	4017
#	24269
#	43474
#	76156
#	98073
#	125207
#	145227
#	161051
#	179106
#
# Disc length: 2574 seconds
#
# Revision: 0
# Processed by: cddbd v1.5.1PL0 Copyright (c) Steve Scherf et al.
# Submitted via: CDex 1.51
#
DISCID=850a0c0a
DTITLE=山下達郎 - GO AHEAD!
DYEAR=1900
DGENRE=New Age
TTITLE0=Overture
TTITLE1=Love Celebration
TTITLE2=Let’s Dance Baby
TTITLE3=Monday Blue
TTITLE4=ついておいで
TTITLE5=Bomber
TTITLE6=潮騒
TTITLE7=Paper Doll
TTITLE8=This Could Be The Ningt
TTITLE9=2000トンの雨
EXTD=
EXTT0=
EXTT1=
EXTT2=
EXTT3=
EXTT4=
EXTT5=
EXTT6=
EXTT7=
EXTT8=
EXTT9=
PLAYORDER=
